<?xml version="1.0" encoding="UTF-8"?>
<svg version="1.1" xmlns="http://www.w3.org/2000/svg" width="32" height="32">
<path d="M0 0 C10.56 0 21.12 0 32 0 C32 10.56 32 21.12 32 32 C21.44 32 10.88 32 0 32 C0 21.44 0 10.88 0 0 Z " fill="#4D4946" transform="translate(0,0)"/>
<path d="M0 0 C10.56 0 21.12 0 32 0 C32 10.56 32 21.12 32 32 C21.44 32 10.88 32 0 32 C0 21.44 0 10.88 0 0 Z M2 8.1875 C0.0129179 13.7761684 0.07067535 18.99265875 2.5625 24.375 C6.6444855 28.77098438 9.96483844 30.70926263 15.9375 31.5625 C20.69272778 31.28387337 24.64864763 29.37642483 28 26 C29.13478487 22.33054374 29.13478487 22.33054374 29 19 C26.83333333 19.83333333 26.83333333 19.83333333 26 22 C25.01 21.01 24.02 20.02 23 19 C22.34 19.33 21.68 19.66 21 20 C21.33 19.34 21.66 18.68 22 18 C22.66 18 23.32 18 24 18 C24.66 18.66 25.32 19.32 26 20 C26 18.35 26 16.7 26 15 C26.66 15 27.32 15 28 15 C28.33 15.99 28.66 16.98 29 18 C29.66 18 30.32 18 31 18 C30.74829714 12.22341928 30.47233468 8.10971295 26 4 C17.00379497 -1.92931695 8.84084033 0.70533089 2 8.1875 Z " fill="#272423" transform="translate(0,0)"/>
<path d="M0 0 C0.99 0.33 1.98 0.66 3 1 C2.01 1.495 2.01 1.495 1 2 C0.34227572 5.02934491 0.34227572 5.02934491 0 8 C0.928125 7.79375 1.85625 7.5875 2.8125 7.375 C6 7 6 7 9 9 C9 9.99 9 10.98 9 12 C8.01 11.67 7.02 11.34 6 11 C6 10.34 6 9.68 6 9 C5.34 9 4.68 9 4 9 C4 10.65 4 12.3 4 14 C2.68 13.34 1.36 12.68 0 12 C-0.33 12.66 -0.66 13.32 -1 14 C-0.01 13.67 0.98 13.34 2 13 C2.99 13.99 3.98 14.98 5 16 C5 15.01 5 14.02 5 13 C5.66 13 6.32 13 7 13 C6.875 16.25 6.875 16.25 6 20 C2.85028521 22.67041036 1.16534658 24 -3 24 C-3 23.01 -3 22.02 -3 21 C-1.35 20.67 0.3 20.34 2 20 C0.35 19.34 -1.3 18.68 -3 18 C-2.67 17.01 -2.34 16.02 -2 15 C-2.99 15.495 -2.99 15.495 -4 16 C-4.65213292 18.02463255 -4.65213292 18.02463255 -5 20 C-5.99 20 -6.98 20 -8 20 C-8 18.68 -8 17.36 -8 16 C-8.66 15.67 -9.32 15.34 -10 15 C-9.67 15.99 -9.34 16.98 -9 18 C-11.31 18.66 -13.62 19.32 -16 20 C-16.33 19.34 -16.66 18.68 -17 18 C-15.68 16.35 -14.36 14.7 -13 13 C-12.34 13.33 -11.68 13.66 -11 14 C-11.33 13.34 -11.66 12.68 -12 12 C-14.32156597 11.59270772 -16.6568787 11.25561323 -19 11 C-18.67 10.01 -18.34 9.02 -18 8 C-17.113125 8.12375 -16.22625 8.2475 -15.3125 8.375 C-12.08203101 8.34083825 -12.08203101 8.34083825 -10.55859375 6.6640625 C-9.34978449 5.12689013 -8.17332124 3.56442832 -7 2 C-6.34 2 -5.68 2 -5 2 C-5 2.66 -5 3.32 -5 4 C-4.01 4 -3.02 4 -2 4 C-1.34 2.68 -0.68 1.36 0 0 Z " fill="#585553" transform="translate(22,6)"/>
<path d="M0 0 C1.485 0.99 1.485 0.99 3 2 C2.67 2.66 2.34 3.32 2 4 C4.31 4 6.62 4 9 4 C9.33 4.99 9.66 5.98 10 7 C8.02 7.99 8.02 7.99 6 9 C6 9.99 6 10.98 6 12 C7.65 11.34 9.3 10.68 11 10 C11 9.34 11 8.68 11 8 C11.99 8.33 12.98 8.66 14 9 C14 9.99 14 10.98 14 12 C14.66 11.67 15.32 11.34 16 11 C16.33 10.01 16.66 9.02 17 8 C17.66 8 18.32 8 19 8 C19.33 8.99 19.66 9.98 20 11 C22.00016466 12.20882096 22.00016466 12.20882096 24 13 C21.92446352 13.5534764 20.15634036 14 18 14 C18.33 15.32 18.66 16.64 19 18 C12.21509797 18.60579482 8.26186457 17.37883902 3 13 C-0.59713727 8.84081003 -0.26742803 5.25941801 0 0 Z " fill="#474443" transform="translate(1,13)"/>
<path d="M0 0 C3.63 0 7.26 0 11 0 C11.08064549 3.45879534 11.1403281 6.91572741 11.1875 10.375 C11.22520508 11.85226562 11.22520508 11.85226562 11.26367188 13.359375 C11.27817383 14.77089844 11.27817383 14.77089844 11.29296875 16.2109375 C11.31653442 17.51490479 11.31653442 17.51490479 11.34057617 18.84521484 C11.22818604 19.55629395 11.1157959 20.26737305 11 21 C10.01 21.66 9.02 22.32 8 23 C8 21.68 8 20.36 8 19 C7.34 20.32 6.68 21.64 6 23 C5.38125 22.505 4.7625 22.01 4.125 21.5 C2.16119096 19.80777227 2.16119096 19.80777227 0 20 C0.495 18.515 0.495 18.515 1 17 C1.99 17.33 2.98 17.66 4 18 C4.33 17.01 4.66 16.02 5 15 C7 15 7 15 8.625 16.5 C9.07875 16.995 9.5325 17.49 10 18 C9.10485074 11.86755957 8.13348884 7.97845385 3 4 C2.34 4 1.68 4 1 4 C0.67 2.68 0.34 1.36 0 0 Z " fill="#272423" transform="translate(21,0)"/>
<path d="M0 0 C0.66 0 1.32 0 2 0 C2.33 0.99 2.66 1.98 3 3 C5.00016466 4.20882096 5.00016466 4.20882096 7 5 C4.92446352 5.5534764 3.15634036 6 1 6 C1.33 7.32 1.66 8.64 2 10 C-0.64 10 -3.28 10 -6 10 C-3.25 4.125 -3.25 4.125 -1 3 C-0.67 2.01 -0.34 1.02 0 0 Z " fill="#464240" transform="translate(18,21)"/>
<path d="M0 0 C0.99 0.33 1.98 0.66 3 1 C3.33 1 3.66 1 4 1 C6 1 8 1 10 1 C10.33 2.65 10.66 4.3 11 6 C10.01 6.495 10.01 6.495 9 7 C8.34 6.67 7.68 6.34 7 6 C7 5.34 7 4.68 7 4 C6.34 4 5.68 4 5 4 C4.67 4.99 4.34 5.98 4 7 C3.34 7 2.68 7 2 7 C0 1.125 0 1.125 0 0 Z " fill="#3F3B3B" transform="translate(10,4)"/>
<path d="M0 0 C2 0 2 0 3.6875 1.1875 C5 3 5 3 4.6875 5.6875 C4.460625 6.450625 4.23375 7.21375 4 8 C3.67 6.68 3.34 5.36 3 4 C2.34 5.32 1.68 6.64 1 8 C0.38125 7.505 -0.2375 7.01 -0.875 6.5 C-2.83880904 4.80777227 -2.83880904 4.80777227 -5 5 C-4.67 4.01 -4.34 3.02 -4 2 C-3.01 2.33 -2.02 2.66 -1 3 C-0.67 2.01 -0.34 1.02 0 0 Z " fill="#433C39" transform="translate(26,15)"/>
<path d="M0 0 C-0.6875 2.4375 -0.6875 2.4375 -2 5 C-4.625 5.8125 -4.625 5.8125 -7 6 C-7 5.34 -7 4.68 -7 4 C-7.66 3.67 -8.32 3.34 -9 3 C-9 2.34 -9 1.68 -9 1 C-6.04335481 -0.4783226 -3.25770263 -0.06032783 0 0 Z " fill="#655C60" transform="translate(19,1)"/>
<path d="M0 0 C1.32 0.33 2.64 0.66 4 1 C2.625 2.5 2.625 2.5 1 4 C0.34 4 -0.32 4 -1 4 C-1.33 4.99 -1.66 5.98 -2 7 C-4.31 6.67 -6.62 6.34 -9 6 C-8.67 5.01 -8.34 4.02 -8 3 C-6.576875 3.0928125 -6.576875 3.0928125 -5.125 3.1875 C-3.578125 3.0946875 -3.578125 3.0946875 -2 3 C-1.34 2.01 -0.68 1.02 0 0 Z " fill="#596363" transform="translate(12,11)"/>
<path d="M0 0 C0.99 0 1.98 0 3 0 C3.66 1.98 4.32 3.96 5 6 C3.35 6.33 1.7 6.66 0 7 C-1.04449911 3.86650268 -0.93423645 3.01031744 0 0 Z " fill="#47403A" transform="translate(22,8)"/>
<path d="M0 0 C0.8353125 0.556875 0.8353125 0.556875 1.6875 1.125 C1.6875 2.115 1.6875 3.105 1.6875 4.125 C0.6975 3.795 -0.2925 3.465 -1.3125 3.125 C-1.3125 2.465 -1.3125 1.805 -1.3125 1.125 C-1.9725 1.125 -2.6325 1.125 -3.3125 1.125 C-3.3125 2.775 -3.3125 4.425 -3.3125 6.125 C-5.3125 4.75 -5.3125 4.75 -7.3125 3.125 C-7.3125 2.465 -7.3125 1.805 -7.3125 1.125 C-2.88173077 -1.09038462 -2.88173077 -1.09038462 0 0 Z " fill="#635B56" transform="translate(29.3125,13.875)"/>
<path d="M0 0 C1.5 1.375 1.5 1.375 3 3 C3 3.66 3 4.32 3 5 C1.68 5 0.36 5 -1 5 C-1.33 5.66 -1.66 6.32 -2 7 C-2.33 5.35 -2.66 3.7 -3 2 C-2.01 1.34 -1.02 0.68 0 0 Z " fill="#615F5A" transform="translate(8,3)"/>
<path d="M0 0 C0.99 0.33 1.98 0.66 3 1 C2.01 1.495 2.01 1.495 1 2 C0.26924352 4.3140622 -0.40138258 6.64828869 -1 9 C-2.32 8.34 -3.64 7.68 -5 7 C-5 6.34 -5 5.68 -5 5 C-4.01 4.67 -3.02 4.34 -2 4 C-0.79117904 1.99983534 -0.79117904 1.99983534 0 0 Z " fill="#66615C" transform="translate(22,6)"/>
<path d="M0 0 C1.98 0 3.96 0 6 0 C5.67 1.65 5.34 3.3 5 5 C4.34 5 3.68 5 3 5 C3 4.01 3 3.02 3 2 C2.01 2.33 1.02 2.66 0 3 C0 2.01 0 1.02 0 0 Z " fill="#51534D" transform="translate(7,8)"/>
<path d="M0 0 C0.99 0.33 1.98 0.66 3 1 C2.67 1.99 2.34 2.98 2 4 C1.01 4 0.02 4 -1 4 C-1 4.66 -1 5.32 -1 6 C-1.66 5.67 -2.32 5.34 -3 5 C-2.01 3.35 -1.02 1.7 0 0 Z " fill="#4F3133" transform="translate(15,25)"/>
<path d="M0 0 C0.99 0.33 1.98 0.66 3 1 C2.67 2.65 2.34 4.3 2 6 C-0.51083114 4.74458443 -0.87125446 3.49936512 -2 1 C-1.34 0.67 -0.68 0.34 0 0 Z " fill="#55504E" transform="translate(12,1)"/>
</svg>
